ply
format ascii 1.0
element vertex 20
property float x
property float y
property float z
element face 12
property list uchar int vertex_indices
end_header
-0.872677996249965 0.872677996249965 0.872677996249965
0.0 1.4120226591665965 0.5393446629166316
0.0 1.4120226591665965 -0.5393446629166316
-0.872677996249965 0.872677996249965 -0.872677996249965
-1.4120226591665965 0.5393446629166316 0.0
0.872677996249965 0.872677996249965 0.872677996249965
-0.5393446629166316 0.0 1.4120226591665965
-1.4120226591665965 -0.5393446629166316 0.0
-0.5393446629166316 0.0 -1.4120226591665965
0.872677996249965 0.872677996249965 -0.872677996249965
0.872677996249965 -0.872677996249965 0.872677996249965
0.0 -1.4120226591665965 0.5393446629166316
0.0 -1.4120226591665965 -0.5393446629166316
0.872677996249965 -0.872677996249965 -0.872677996249965
1.4120226591665965 -0.5393446629166316 0.0
0.5393446629166316 0.0 1.4120226591665965
-0.872677996249965 -0.872677996249965 0.872677996249965
-0.872677996249965 -0.872677996249965 -0.872677996249965
0.5393446629166316 0.0 -1.4120226591665965
1.4120226591665965 0.5393446629166316 0.0
5 0 4 3 2 1
5 1 2 9 19 5
5 7 16 11 12 17
5 10 14 13 12 11
5 6 15 10 11 16
5 0 1 5 15 6
5 8 17 12 13 18
5 2 3 8 18 9
5 9 18 13 14 19
5 5 19 14 10 15
5 3 4 7 17 8
5 0 6 16 7 4
